<svg width="30" height="30" fill="none" xmlns="http://www.w3.org/2000/svg"><path d="M21.113 2.772c1.418.064 2.202.297 2.71.51.678.275 1.165.572 1.673 1.102.508.509.826.996 1.101 1.675.19.509.445 1.293.508 2.714.17 3.922.17 7.909 0 11.831-.063 1.421-.296 2.206-.508 2.714a4.707 4.707 0 01-1.101 1.675 4.701 4.701 0 01-1.673 1.103c-.508.19-1.292.445-2.71.509-3.918.17-7.9.17-11.817 0-1.419-.064-2.202-.297-2.71-.509a4.701 4.701 0 01-1.674-1.103 4.708 4.708 0 01-1.1-1.675c-.191-.509-.445-1.293-.509-2.714a137.78 137.78 0 010-11.831c.085-1.442.318-2.205.508-2.714.276-.7.593-1.188 1.101-1.696A4.385 4.385 0 016.585 3.28c.53-.212 1.292-.445 2.732-.509 3.918-.19 7.878-.19 11.796 0zM9.19.143C7.623.207 6.564.461 5.632.822a7.027 7.027 0 00-2.583 1.675c-.805.827-1.313 1.632-1.673 2.608-.381.911-.614 1.993-.699 3.54a127.76 127.76 0 000 12.065c.064 1.548.318 2.63.678 3.563.381.954.868 1.78 1.694 2.586a7.383 7.383 0 002.583 1.697c.932.36 1.991.614 3.558.678 4.003.17 8.047.17 12.05 0 1.545-.064 2.626-.318 3.557-.678.953-.382 1.78-.87 2.584-1.697a7.393 7.393 0 001.694-2.587c.36-.932.614-1.993.678-3.562.19-4.007.19-8.057 0-12.064-.064-1.548-.318-2.63-.678-3.541-.381-.954-.868-1.781-1.694-2.587A7.382 7.382 0 0024.797.822c-.931-.36-1.99-.615-3.557-.679-4.003-.19-8.047-.19-12.05 0zm6.035 7.018c-4.15 0-7.496 3.372-7.496 7.506a7.502 7.502 0 007.496 7.506c4.151 0 7.497-3.371 7.497-7.506 0-4.134-3.367-7.506-7.497-7.506zm0 12.404a4.874 4.874 0 01-4.87-4.876 4.874 4.874 0 014.87-4.877 4.874 4.874 0 014.871 4.877 4.874 4.874 0 01-4.87 4.876zm9.551-12.7c0 .975-.784 1.76-1.758 1.76a1.754 1.754 0 01-1.757-1.76c0-.976.783-1.76 1.757-1.76.974 0 1.758.784 1.758 1.76z" fill="#765151"/></svg>