<svg width="31" height="30" fill="none" xmlns="http://www.w3.org/2000/svg"><path d="M19.864 0h-9.008C2.634 0 .679 1.955.679 10.177v9.008c0 8.222 1.955 10.176 10.177 10.176h9.008c8.222 0 10.177-1.954 10.177-10.176v-9.008C30.019 1.955 28.065 0 19.864 0zm4.504 20.948h-2.146c-.807 0-1.062-.659-2.507-2.103-1.275-1.232-1.806-1.381-2.124-1.381-.425 0-.553.127-.553.743v1.912c0 .532-.17.83-1.53.83-2.273 0-4.758-1.382-6.522-3.91-2.655-3.74-3.378-6.544-3.378-7.117 0-.319.128-.595.744-.595h2.146c.552 0 .743.233.956.828 1.04 3.039 2.804 5.715 3.526 5.715.277 0 .404-.127.404-.807v-3.165c-.085-1.445-.85-1.573-.85-2.083 0-.233.213-.488.553-.488h3.356c.447 0 .616.233.616.786v4.249c0 .446.192.616.34.616.277 0 .49-.149.999-.659 1.55-1.72 2.634-4.376 2.634-4.376.107-.34.362-.616.893-.616h2.145c.638 0 .787.34.638.786-.276 1.253-2.89 4.929-2.89 4.929-.233.361-.318.552 0 .956.234.319.978.956 1.466 1.55.914 1.042 1.615 1.913 1.806 2.508.192.573-.106.892-.722.892z" fill="#765151"/></svg>