<svg width="110" height="51" fill="none" xmlns="http://www.w3.org/2000/svg"><path d="M13.014 30.886c.347 0 .623.273.623.614 0 .34-.276.545-.623.545H7.407c-3.738 0-6.092 1.841-6.092 6.341v5.25c0 3.545 2.146 6.136 6.092 6.136h5.538c.346 0 .692.205.692.546 0 .34-.276.614-.623.614H7.407C2.7 51 0 48 0 43.703v-5.25C0 33 2.838 30.886 7.476 30.886h5.538zm19.591.614c0-.341.347-.614.693-.614s.553.273.623.614v18.272h10.107c.346-.068.692.205.692.546v.068c0 .34-.277.614-.623.614H33.852c-.623 0-1.177-.478-1.246-1.091V31.5zm30.322 0c.069-.341.346-.614.692-.614s.623.273.623.614v13.159c0 3.273 2.215 5.181 4.5 5.181h4.015c2.63 0 4.223-2.113 4.223-5.181V31.568c0-.341.276-.614.623-.682h.069c.346 0 .623.273.692.614v13.159c0 3.818-2.077 6.409-5.538 6.409h-4.015c-3.046 0-5.746-2.25-5.746-6.41L62.927 31.5zm40.428-.614c3.115 0 5.745 2.114 5.745 5.182 0 2.182-1.315 3.545-3.184 4.432 2.354.75 4.084 2.454 4.084 5.045 0 3.273-2.769 5.523-6.092 5.523h-7.891c-.623 0-1.177-.477-1.246-1.091V32.045c0-.614.484-1.159 1.176-1.159h7.408zm0 9.068c2.422 0 4.499-1.5 4.499-3.886 0-2.387-2.077-3.955-4.499-3.955h-7.27v7.91h7.27v-.069zm-7.27 1.16v8.658h7.754c2.631 0 4.846-1.704 4.846-4.295s-2.215-4.364-4.846-4.364h-7.753zM20.975 0h7.269c1.661 0 3.253.068 4.846.34 1.246.205 2.422.546 3.6 1.092 2.076 1.023 3.6 3.068 3.876 5.318.139.75.208 1.568.208 2.386v11.591c0 .205.069.41.207.546 1.108 1.09 2.216 2.113 3.254 3.204.623.546.761 1.5.208 2.182-.139.205-.346.41-.554.614-.692.613-1.8.613-2.423-.069l-.07-.068c-1.245-1.295-2.63-2.659-3.945-3.954a.633.633 0 00-.485-.205H22.43a22.54 22.54 0 01-5.607-.681 9.255 9.255 0 01-3.808-1.978c-1.315-1.227-2.146-2.864-2.284-4.636-.07-.682-.139-1.364-.139-2.046V1.91A1.702 1.702 0 0112.183.07h.139c.138-.07.346-.07.554-.07h8.1zM36.76 19.704v-10.5a8.36 8.36 0 00-.208-1.84c-.208-1.773-1.523-3.137-3.254-3.614a12.219 12.219 0 00-3.115-.41h-15.23c-.277 0-.346.07-.346.342v10.022c0 .614.07 1.228.139 1.841.346 1.978 1.523 3.341 3.461 3.75.9.205 1.8.341 2.7.341 5.123.069 10.315 0 15.437 0l.416.069zm58.91-6.75h-6.507c-1.177 0-2.354-.136-3.462-.545-1.522-.477-2.7-1.705-2.976-3.273a14.834 14.834 0 01-.139-4.636c.208-1.637 1.177-2.66 2.63-3.273 1.109-.477 2.355-.818 3.6-.886C90.825.136 92.764 0 94.77.068h5.469c1.731 0 3.53.205 5.192.682.969.273 1.8.75 2.492 1.432a3.22 3.22 0 01.969 2.318c.069.818-.484 1.568-1.315 1.636a2.257 2.257 0 01-1.731-.273c-.277-.136-.484-.409-.623-.681-.415-1.16-1.315-1.569-2.492-1.705-.9-.136-1.8-.136-2.769-.204h-7.823c-1.246 0-2.492.068-3.738.272-1.384.273-1.869.818-2.007 2.182-.07.682-.07 1.364.069 2.046.07.818.623 1.431 1.384 1.636.831.273 1.731.34 2.562.34h11.353c1.384 0 2.838.137 4.223.478 2.284.614 3.461 2.114 3.807 4.432.208 1.227.208 2.454-.069 3.682-.416 1.84-1.869 3.34-3.738 3.886-1.246.41-2.631.682-3.946.682H90.755a21.66 21.66 0 01-4.707-.546 6.13 6.13 0 01-2.423-1.159c-.831-.613-1.316-1.568-1.385-2.59-.138-1.091.762-1.91 2.008-1.773.83 0 1.523.477 1.8 1.227.276.682.83 1.16 1.522 1.295.9.273 1.8.341 2.7.341h9.9a12.97 12.97 0 003.946-.409c1.246-.34 1.799-.954 1.869-2.25.069-.682 0-1.363-.07-2.045a1.762 1.762 0 00-1.246-1.5c-.969-.41-2.007-.546-3.046-.546H95.67zm-34.06 9.955c-1.522 0-3.114.068-4.637 0-1.8 0-3.6-.341-5.33-.955-2.7-.886-4.639-3.273-4.916-6.068-.069-.682-.138-1.432-.138-2.114V9.068c0-1.228.138-2.455.554-3.682.761-2.046 2.353-3.614 4.43-4.296C53.027.545 54.55.204 56.142.204c3.046-.068 6.092-.136 9.207-.068 1.938 0 3.877.204 5.746.818 1.8.477 3.392 1.636 4.43 3.205.762 1.159 1.108 2.522 1.177 3.886.07 2.182.07 4.432.07 6.614a9.07 9.07 0 01-.97 4.022c-.9 1.705-2.492 3-4.361 3.546a16.89 16.89 0 01-4.5.818c-1.73.068-3.461.068-5.26.136v-.272h-.07zm0-19.637c-1.384 0-2.768-.068-4.153 0-.969 0-1.938.137-2.907.273-1.246.205-2.423.886-3.184 1.91-.624.954-.97 2.045-.9 3.204-.07 1.704 0 3.34 0 5.045 0 .545.069 1.16.138 1.705.208 1.909 1.661 3.477 3.6 3.886 1.177.273 2.353.41 3.53.41 2.562 0 5.192.067 7.754 0 1.038 0 2.007-.137 3.046-.274 1.107-.136 2.145-.681 2.838-1.5.83-.954 1.315-2.182 1.246-3.477.07-1.84.07-3.614 0-5.454 0-.614-.07-1.228-.208-1.841a4.364 4.364 0 00-3.115-3.478c-1.038-.34-2.077-.477-3.184-.477-1.385 0-2.977.068-4.5.068zM4.223 11.523v9.409c0 .34-.069.681-.207.954-.347.818-1.316 1.296-2.216 1.023-.9-.136-1.523-.886-1.523-1.705V1.909c0-1.977 1.939-2.25 2.977-1.705a1.75 1.75 0 01.9 1.705v7.023l.07 2.59z" fill="#fff"/></svg>