<svg viewBox="0 0 31 30" xmlns="http://www.w3.org/2000/svg" xmlns:xlink="http://www.w3.org/1999/xlink"><style>:root&gt;svg{display:none}:root&gt;svg:target{display:block}</style><svg viewBox="0 0 30 30" id="instagram" xmlns="http://www.w3.org/2000/svg"><path d="M21.113 2.772c1.418.064 2.202.297 2.71.51.678.275 1.165.572 1.673 1.102.508.509.826.996 1.101 1.675.19.509.445 1.293.508 2.714.17 3.922.17 7.909 0 11.831-.063 1.421-.296 2.206-.508 2.714a4.707 4.707 0 01-1.101 1.675 4.701 4.701 0 01-1.673 1.103c-.508.19-1.292.445-2.71.509-3.918.17-7.9.17-11.817 0-1.419-.064-2.202-.297-2.71-.509a4.701 4.701 0 01-1.674-1.103 4.708 4.708 0 01-1.1-1.675c-.191-.509-.445-1.293-.509-2.714a137.78 137.78 0 010-11.831c.085-1.442.318-2.205.508-2.714.276-.7.593-1.188 1.101-1.696A4.385 4.385 0 016.585 3.28c.53-.212 1.292-.445 2.732-.509 3.918-.19 7.878-.19 11.796 0zM9.19.143C7.623.207 6.564.461 5.632.822a7.027 7.027 0 00-2.583 1.675c-.805.827-1.313 1.632-1.673 2.608-.381.911-.614 1.993-.699 3.54a127.76 127.76 0 000 12.065c.064 1.548.318 2.63.678 3.563.381.954.868 1.78 1.694 2.586a7.383 7.383 0 002.583 1.697c.932.36 1.991.614 3.558.678 4.003.17 8.047.17 12.05 0 1.545-.064 2.626-.318 3.557-.678.953-.382 1.78-.87 2.584-1.697a7.393 7.393 0 001.694-2.587c.36-.932.614-1.993.678-3.562.19-4.007.19-8.057 0-12.064-.064-1.548-.318-2.63-.678-3.541-.381-.954-.868-1.781-1.694-2.587A7.382 7.382 0 0024.797.822c-.931-.36-1.99-.615-3.557-.679-4.003-.19-8.047-.19-12.05 0zm6.035 7.018c-4.15 0-7.496 3.372-7.496 7.506a7.502 7.502 0 007.496 7.506c4.151 0 7.497-3.371 7.497-7.506 0-4.134-3.367-7.506-7.497-7.506zm0 12.404a4.874 4.874 0 01-4.87-4.876 4.874 4.874 0 014.87-4.877 4.874 4.874 0 014.871 4.877 4.874 4.874 0 01-4.87 4.876zm9.551-12.7c0 .975-.784 1.76-1.758 1.76a1.754 1.754 0 01-1.757-1.76c0-.976.783-1.76 1.757-1.76.974 0 1.758.784 1.758 1.76z"/></svg><svg viewBox="0 0 16 11" id="questions-arrow" xmlns="http://www.w3.org/2000/svg"><path d="M.96 1.691l7 7 7-7"/></svg><svg viewBox="0 0 31 30" id="vk" xmlns="http://www.w3.org/2000/svg"><path d="M19.864 0h-9.008C2.634 0 .679 1.955.679 10.177v9.008c0 8.222 1.955 10.176 10.177 10.176h9.008c8.222 0 10.177-1.954 10.177-10.176v-9.008C30.019 1.955 28.065 0 19.864 0zm4.504 20.948h-2.146c-.807 0-1.062-.659-2.507-2.103-1.275-1.232-1.806-1.381-2.124-1.381-.425 0-.553.127-.553.743v1.912c0 .532-.17.83-1.53.83-2.273 0-4.758-1.382-6.522-3.91-2.655-3.74-3.378-6.544-3.378-7.117 0-.319.128-.595.744-.595h2.146c.552 0 .743.233.956.828 1.04 3.039 2.804 5.715 3.526 5.715.277 0 .404-.127.404-.807v-3.165c-.085-1.445-.85-1.573-.85-2.083 0-.233.213-.488.553-.488h3.356c.447 0 .616.233.616.786v4.249c0 .446.192.616.34.616.277 0 .49-.149.999-.659 1.55-1.72 2.634-4.376 2.634-4.376.107-.34.362-.616.893-.616h2.145c.638 0 .787.34.638.786-.276 1.253-2.89 4.929-2.89 4.929-.233.361-.318.552 0 .956.234.319.978.956 1.466 1.55.914 1.042 1.615 1.913 1.806 2.508.192.573-.106.892-.722.892z"/></svg></svg>